# Blender v3.0.1 OBJ File: 'knife_switch_triangulated.blend'
# www.blender.org
mtllib knife_switch.mtl
o knifeswitch_Cube.003
v 0.437500 0.000000 0.187500
v 0.437500 0.125000 0.187500
v 0.437500 0.000000 0.000000
v 0.437500 0.125000 0.000000
v 0.562500 0.000000 0.187500
v 0.562500 0.125000 0.187500
v 0.562500 0.000000 0.000000
v 0.562500 0.125000 0.000000
v 0.375000 0.000000 0.812500
v 0.375000 0.125000 0.812500
v 0.375000 0.000000 0.187500
v 0.375000 0.125000 0.187500
v 0.625000 0.000000 0.812500
v 0.625000 0.125000 0.812500
v 0.625000 0.000000 0.187500
v 0.625000 0.125000 0.187500
v 0.437500 0.000000 1.000000
v 0.437500 0.125000 1.000000
v 0.437500 0.000000 0.812500
v 0.437500 0.125000 0.812500
v 0.562500 0.000000 1.000000
v 0.562500 0.125000 1.000000
v 0.562500 0.000000 0.812500
v 0.562500 0.125000 0.812500
v 0.375000 0.250000 0.812500
v 0.625000 0.250000 0.812500
v 0.437500 0.250000 0.812500
v 0.562500 0.250000 0.812500
v 0.375000 0.250000 0.687500
v 0.625000 0.250000 0.687500
v 0.437500 0.250000 0.687500
v 0.562500 0.250000 0.687500
v 0.375000 0.125000 0.687500
v 0.625000 0.125000 0.687500
v 0.437500 0.125000 0.687500
v 0.562500 0.125000 0.687500
v 0.437500 0.125000 0.312500
v 0.437500 0.125000 0.187500
v 0.562500 0.125000 0.312500
v 0.562500 0.125000 0.187500
v 0.500000 0.187500 0.187500
v 0.500000 0.187500 0.312500
vt 0.050000 0.150000
vt -0.000000 0.200000
vt -0.000000 0.150000
vt -0.000000 0.200000
vt 0.050000 0.250000
vt -0.000000 0.250000
vt -0.000000 0.200000
vt 0.050000 0.150000
vt 0.050000 0.200000
vt 0.425000 0.200000
vt 0.400000 0.150000
vt 0.425000 0.150000
vt 0.400000 0.100000
vt 0.425000 0.150000
vt 0.400000 0.150000
vt 0.675000 0.150000
vt 0.700000 0.100000
vt 0.700000 0.150000
vt 0.125000 0.200000
vt 0.050000 0.175000
vt 0.125000 0.175000
vt 0.700000 0.200000
vt 0.675000 0.150000
vt 0.700000 0.150000
vt 0.050000 0.175000
vt 0.125000 0.200000
vt 0.050000 0.200000
vt -0.000000 0.250000
vt 0.050000 0.200000
vt 0.050000 0.250000
vt 0.825000 0.075000
vt 0.875000 0.075000
vt 0.875000 0.325000
vt 0.525000 0.175000
vt 0.550000 0.100000
vt 0.550000 0.175000
vt 0.525000 0.175000
vt 0.550000 0.100000
vt 0.550000 0.175000
vt 0.500000 0.000000
vt 0.475000 0.050000
vt 0.475000 0.000000
vt 0.450000 0.000000
vt 0.425000 0.050000
vt 0.425000 0.000000
vt 0.450000 0.000000
vt 0.425000 0.050000
vt 0.425000 0.000000
vt 0.450000 0.000000
vt 0.425000 0.050000
vt 0.425000 0.000000
vt 0.600000 0.025000
vt 0.600000 0.075000
vt 0.400000 0.075000
vt 0.475000 0.175000
vt 0.425000 0.125000
vt 0.475000 0.125000
vt 0.425000 0.175000
vt 0.475000 0.125000
vt 0.475000 0.175000
vt 0.475000 0.200000
vt 0.475000 0.175000
vt 0.425000 0.125000
vt 0.475000 0.125000
vt 0.475000 0.100000
vt 0.675000 0.100000
vt 0.475000 0.175000
vt 0.425000 0.125000
vt 0.475000 0.125000
vt 0.175000 0.100000
vt 0.175000 0.050000
vt 0.225000 0.050000
vt 0.050000 0.150000
vt -0.000000 0.150000
vt 0.325000 0.275000
vt 0.375000 0.225000
vt 0.375000 0.275000
vt 0.375000 0.275000
vt 0.325000 0.275000
vt 0.375000 0.225000
vt 0.325000 0.225000
vt 0.325000 0.275000
vt 0.325000 0.225000
vt 0.375000 0.275000
vt 0.050000 0.200000
vt 0.050000 0.200000
vt -0.000000 0.150000
vt 0.400000 0.200000
vt 0.425000 0.100000
vt 0.050000 0.200000
vt 0.675000 0.200000
vt 0.125000 0.175000
vt -0.000000 0.200000
vt 0.875000 0.400000
vt 0.825000 0.400000
vt 0.825000 0.325000
vt 0.800000 0.325000
vt 0.800000 0.075000
vt 0.900000 0.075000
vt 0.900000 0.325000
vt 0.825000 0.000000
vt 0.875000 0.000000
vt 0.525000 0.100000
vt 0.525000 0.100000
vt 0.500000 0.050000
vt 0.450000 0.050000
vt 0.450000 0.050000
vt 0.450000 0.050000
vt 0.600000 0.100000
vt 0.400000 0.100000
vt 0.400000 0.025000
vt 0.400000 0.000000
vt 0.600000 0.000000
vt 0.425000 0.175000
vt 0.425000 0.125000
vt 0.425000 0.175000
vt 0.425000 0.175000
vt 0.225000 0.100000
vt 0.225000 0.175000
vt 0.175000 0.175000
vt 0.375000 0.225000
vt 0.375000 0.225000
vn -1.0000 0.0000 0.0000
vn 0.0000 0.0000 -1.0000
vn 1.0000 0.0000 0.0000
vn 0.0000 0.0000 1.0000
vn 0.0000 -1.0000 0.0000
vn 0.0000 1.0000 0.0000
vn -0.7071 0.7071 0.0000
vn 0.7071 0.7071 0.0000
usemtl Knifeswitch
s off
f 2/1/1 3/2/1 1/3/1
f 4/4/2 7/5/2 3/6/2
f 8/7/3 5/8/3 7/9/3
f 14/10/4 23/11/4 13/12/4
f 20/13/4 9/14/4 19/15/4
f 11/16/2 2/17/2 1/18/2
f 18/19/1 19/20/1 17/21/1
f 6/22/2 15/23/2 5/24/2
f 24/25/3 21/26/3 23/27/3
f 22/28/4 17/29/4 21/30/4
f 23/31/5 19/32/5 1/33/5
f 14/34/4 28/35/4 24/36/4
f 20/37/4 25/38/4 10/39/4
f 26/40/6 32/41/6 28/42/6
f 27/43/6 29/44/6 25/45/6
f 30/46/2 36/47/2 32/48/2
f 31/49/2 33/50/2 29/51/2
f 35/52/6 36/53/6 6/54/6
f 35/55/3 27/56/3 20/57/3
f 34/58/3 26/59/3 14/60/3
f 34/61/3 13/12/3 15/23/3
f 29/62/1 10/63/1 25/64/1
f 33/65/1 12/66/1 11/16/1
f 32/67/1 24/68/1 28/69/1
f 24/70/6 36/71/6 35/72/6
f 6/73/6 4/4/6 2/74/6
f 37/75/4 39/76/4 42/77/4
f 41/78/2 40/79/2 38/80/2
f 38/81/7 42/77/7 41/82/7
f 41/83/8 39/84/8 40/79/8
f 2/1/1 4/85/1 3/2/1
f 4/4/2 8/86/2 7/5/2
f 8/7/3 6/87/3 5/8/3
f 14/10/4 24/88/4 23/11/4
f 20/13/4 10/89/4 9/14/4
f 11/16/2 12/66/2 2/17/2
f 18/19/1 20/90/1 19/20/1
f 6/22/2 16/91/2 15/23/2
f 24/25/3 22/92/3 21/26/3
f 22/28/4 18/93/4 17/29/4
f 1/33/5 3/94/5 7/95/5
f 5/96/5 15/97/5 13/98/5
f 1/33/5 7/95/5 5/96/5
f 9/99/5 11/100/5 1/33/5
f 21/101/5 17/102/5 19/32/5
f 19/32/5 9/99/5 1/33/5
f 1/33/5 5/96/5 23/31/5
f 5/96/5 13/98/5 23/31/5
f 23/31/5 21/101/5 19/32/5
f 14/34/4 26/103/4 28/35/4
f 20/37/4 27/104/4 25/38/4
f 26/40/6 30/105/6 32/41/6
f 27/43/6 31/106/6 29/44/6
f 30/46/2 34/107/2 36/47/2
f 31/49/2 35/108/2 33/50/2
f 36/53/6 34/109/6 16/110/6
f 6/54/6 2/111/6 35/52/6
f 2/111/6 12/112/6 35/52/6
f 36/53/6 16/110/6 6/54/6
f 12/112/6 33/113/6 35/52/6
f 35/55/3 31/114/3 27/56/3
f 34/58/3 30/115/3 26/59/3
f 15/23/3 16/91/3 34/61/3
f 34/61/3 14/10/3 13/12/3
f 29/62/1 33/116/1 10/63/1
f 11/16/1 9/14/1 33/65/1
f 9/14/1 10/89/1 33/65/1
f 32/67/1 36/117/1 24/68/1
f 35/72/6 20/118/6 24/70/6
f 20/118/6 18/119/6 24/70/6
f 18/119/6 22/120/6 24/70/6
f 6/73/6 8/86/6 4/4/6
f 38/81/7 37/121/7 42/77/7
f 41/83/8 42/122/8 39/84/8
o switchhandle_Cube.006
v 0.437500 0.187500 0.812500
v 0.437500 0.250000 0.812500
v 0.437500 0.187500 0.312500
v 0.437500 0.250000 0.312500
v 0.562500 0.187500 0.812500
v 0.562500 0.250000 0.812500
v 0.562500 0.187500 0.312500
v 0.562500 0.250000 0.312500
v 0.437500 0.250000 0.187500
v 0.437500 0.187500 0.187500
v 0.562500 0.187500 0.187500
v 0.562500 0.250000 0.187500
v 0.562500 0.125000 0.312500
v 0.437500 0.125000 0.312500
v 0.562500 0.125000 0.187500
v 0.437500 0.125000 0.187500
v 0.371094 0.143306 0.750000
v 0.371094 0.187500 0.794194
v 0.371094 0.187500 0.705806
v 0.371094 0.231694 0.750000
v 0.628906 0.143306 0.750000
v 0.628906 0.187500 0.794194
v 0.628906 0.187500 0.705806
v 0.628906 0.231694 0.750000
v 0.500000 0.187500 0.312500
v 0.500000 0.187500 0.187500
v 0.468750 0.250000 0.437500
v 0.468750 0.312500 0.375000
v 0.468750 0.250000 0.187500
v 0.468750 0.312500 0.250000
v 0.531250 0.250000 0.437500
v 0.531250 0.312500 0.375000
v 0.531250 0.250000 0.187500
v 0.531250 0.312500 0.250000
vt 0.475000 0.275000
vt 0.275000 0.300000
vt 0.475000 0.300000
vt 0.275000 0.275000
vt 0.475000 0.300000
vt 0.275000 0.300000
vt 0.600000 0.050000
vt 0.625000 0.000000
vt 0.625000 0.050000
vt 0.475000 0.350000
vt 0.275000 0.350000
vt 0.050000 0.325000
vt 0.050000 0.350000
vt 0.100000 0.350000
vt 0.275000 0.225000
vt 0.475000 0.225000
vt 0.475000 0.275000
vt 0.200000 0.275000
vt 0.200000 0.250000
vt 0.225000 0.275000
vt 0.050000 0.250000
vt 0.000000 0.225000
vt 0.050000 0.225000
vt 0.300000 0.275000
vt 0.275000 0.275000
vt 0.300000 0.275000
vt 0.475000 0.350000
vt 0.500000 0.325000
vt 0.500000 0.350000
vt 0.600000 0.225000
vt 0.500000 0.200000
vt 0.600000 0.200000
vt 0.500000 0.225000
vt 0.475000 0.200000
vt 0.525000 0.225000
vt 0.625000 0.250000
vt 0.525000 0.250000
vt 0.525000 0.325000
vt 0.500000 0.225000
vt 0.525000 0.225000
vt 0.475000 0.225000
vt 0.000000 0.200000
vt 0.050000 0.200000
vt 0.100000 0.325000
vt 0.050000 0.350000
vt 0.050000 0.325000
vt 0.025000 0.150000
vt 0.100000 0.175000
vt -0.000000 0.175000
vt 0.025000 0.100000
vt 0.050000 0.125000
vt 0.025000 0.125000
vt 0.025000 0.150000
vt 0.100000 0.175000
vt -0.000000 0.175000
vt 0.050000 0.050000
vt 0.025000 0.025000
vt 0.050000 0.025000
vt 0.050000 0.100000
vt 0.275000 0.275000
vt 0.600000 0.000000
vt 0.100000 0.325000
vt 0.100000 0.300000
vt 0.050000 0.300000
vt 0.225000 0.275000
vt 0.225000 0.225000
vt 0.250000 0.250000
vt 0.250000 0.275000
vt 0.250000 0.300000
vt 0.200000 0.300000
vt 0.000000 0.250000
vt 0.300000 0.250000
vt 0.300000 0.275000
vt 0.475000 0.325000
vt 0.625000 0.225000
vt 0.500000 0.325000
vt 0.050000 0.300000
vt 0.100000 0.300000
vt 0.100000 0.350000
vt 0.075000 0.150000
vt 0.075000 0.150000
vt 0.025000 0.050000
vn -1.0000 0.0000 0.0000
vn 1.0000 0.0000 0.0000
vn 0.0000 0.0000 1.0000
vn 0.0000 -1.0000 0.0000
vn 0.0000 1.0000 0.0000
vn 0.0000 0.0000 -1.0000
vn 0.7071 -0.7071 0.0000
vn 0.0000 0.7071 -0.7071
vn 0.0000 -0.7071 0.7071
vn 0.0000 -0.7071 -0.7071
vn 0.0000 0.7071 0.7071
vn -0.7071 -0.7071 0.0000
usemtl Knifeswitch
s off
f 44/123/9 45/124/9 43/125/9
f 50/126/10 47/127/10 49/128/10
f 48/129/11 43/130/11 47/131/11
f 49/128/12 43/132/12 45/133/12
f 52/134/9 58/135/9 56/136/9
f 46/137/13 44/138/13 48/139/13
f 53/140/14 57/141/14 68/142/14
f 56/143/15 68/144/15 67/145/15
f 49/146/11 45/147/11 67/148/11
f 59/149/9 62/150/9 61/151/9
f 62/152/16 65/153/16 61/154/16
f 66/155/10 63/156/10 65/153/10
f 64/157/17 59/158/17 63/159/17
f 65/160/18 59/161/18 61/162/18
f 62/150/19 64/163/19 66/155/19
f 67/145/20 57/164/20 55/165/20
f 49/166/10 57/167/10 53/168/10
f 70/169/9 71/170/9 69/171/9
f 72/172/16 75/173/16 71/174/16
f 76/175/10 73/176/10 75/177/10
f 74/178/19 69/179/19 73/180/19
f 72/172/13 74/178/13 76/181/13
f 44/123/9 46/182/9 45/124/9
f 50/126/10 48/139/10 47/127/10
f 48/129/11 44/183/11 43/130/11
f 49/128/12 47/127/12 43/132/12
f 56/136/9 45/184/9 52/134/9
f 45/184/9 46/185/9 52/134/9
f 46/185/9 51/186/9 52/134/9
f 48/139/13 50/126/13 46/137/13
f 50/126/13 54/187/13 46/137/13
f 54/187/13 51/188/13 46/137/13
f 58/189/14 52/190/14 68/142/14
f 52/190/14 51/191/14 68/142/14
f 51/191/14 54/192/14 68/142/14
f 54/192/14 53/140/14 68/142/14
f 56/143/15 58/193/15 68/144/15
f 45/147/11 56/194/11 67/148/11
f 67/148/11 55/195/11 49/146/11
f 59/149/9 60/196/9 62/150/9
f 62/152/16 66/155/16 65/153/16
f 66/155/10 64/163/10 63/156/10
f 64/157/17 60/197/17 59/158/17
f 65/160/18 63/198/18 59/161/18
f 62/150/19 60/196/19 64/163/19
f 67/145/20 68/144/20 57/164/20
f 54/199/10 50/200/10 49/166/10
f 49/166/10 55/201/10 57/167/10
f 53/168/10 54/199/10 49/166/10
f 70/169/9 72/202/9 71/170/9
f 72/172/16 76/181/16 75/173/16
f 76/175/10 74/203/10 73/176/10
f 74/178/19 70/204/19 69/179/19
f 72/172/13 70/204/13 74/178/13
