# Blender v3.0.1 OBJ File: 'light.blend'
# www.blender.org
mtllib light.mtl
o Light_Cube
v 0.437500 0.000000 0.000000
v 0.437500 0.125000 0.000000
v 0.437500 0.000000 -0.312500
v 0.437500 0.125000 -0.312500
v 0.562500 0.000000 0.000000
v 0.562500 0.125000 0.000000
v 0.562500 0.000000 -0.312500
v 0.562500 0.125000 -0.312500
v 0.375261 0.000000 -0.312500
v 0.312500 0.000000 -0.375261
v 0.312500 0.187500 -0.375261
v 0.375261 0.187500 -0.312500
v 0.312500 0.000000 -0.624739
v 0.375261 0.000000 -0.687500
v 0.375261 0.187500 -0.687500
v 0.312500 0.187500 -0.624739
v 0.687500 0.000000 -0.375261
v 0.624739 0.000000 -0.312500
v 0.624739 0.187500 -0.312500
v 0.687500 0.187500 -0.375261
v 0.624739 0.000000 -0.687500
v 0.687500 0.000000 -0.624739
v 0.687500 0.187500 -0.624739
v 0.624739 0.187500 -0.687500
v 0.375000 0.187500 -0.375000
v 0.437500 0.250000 -0.437500
v 0.375000 0.187500 -0.625000
v 0.437500 0.250000 -0.562500
v 0.625000 0.187500 -0.375000
v 0.562500 0.250000 -0.437500
v 0.625000 0.187500 -0.625000
v 0.562500 0.250000 -0.562500
vt 0.531250 0.281250
vt 0.531250 0.187500
vt 0.656250 0.187500
vt 0.656250 0.281250
vt 0.406250 0.468750
vt 0.406250 0.375000
vt 0.531250 0.375000
vt 0.531250 0.468750
vt 0.812500 0.343750
vt 0.843750 0.312500
vt 0.968750 0.312500
vt 1.000000 0.343750
vt 1.000000 0.468750
vt 0.968750 0.500000
vt 0.843750 0.500000
vt 0.812500 0.468750
vt 0.406250 0.468750
vt 0.406250 0.375000
vt 0.531250 0.375000
vt 0.531250 0.468750
vt 0.531250 0.281250
vt 0.531250 0.187500
vt 0.656250 0.187500
vt 0.656250 0.281250
vt 0.218750 -0.000000
vt 0.218750 0.062500
vt 0.062500 0.062500
vt 0.062500 0.000000
vt 0.062500 0.062500
vt 0.062500 0.000000
vt 0.218750 -0.000000
vt 0.218750 0.062500
vt 0.062500 0.062500
vt -0.000000 0.062500
vt -0.000000 0.000000
vt 0.062500 0.000000
vt 0.218750 -0.000000
vt 0.218750 0.062500
vt 0.062500 0.062500
vt 0.062500 0.000000
vt 0.218750 -0.000000
vt 0.218750 0.062500
vt 0.343750 0.468750
vt 0.343750 0.375000
vt 0.593750 0.375000
vt 0.593750 0.468750
vt 0.343750 0.468750
vt 0.343750 0.375000
vt 0.593750 0.375000
vt 0.593750 0.468750
vt 0.812500 0.343750
vt 0.843750 0.312500
vt 0.968750 0.312500
vt 1.000000 0.343750
vt 1.000000 0.468750
vt 0.968750 0.500000
vt 0.843750 0.500000
vt 0.812500 0.468750
vt 0.906250 0.562500
vt 0.937500 0.562500
vt 0.937500 0.593750
vt 0.906250 0.593750
vt 0.937500 0.625000
vt 0.906250 0.625000
vt 0.937500 0.656250
vt 0.906250 0.656250
vt 0.937500 0.687500
vt 0.906250 0.687500
vt 0.968750 0.625000
vt 0.968750 0.656250
vn 0.0000 0.0000 1.0000
vn 1.0000 0.0000 0.0000
vn 0.0000 1.0000 0.0000
vn -1.0000 0.0000 0.0000
vn 0.0000 0.0000 -1.0000
vn 0.0000 -1.0000 0.0000
vn -0.7071 0.0000 0.7071
vn -0.7071 0.0000 -0.7071
vn 0.7071 0.0000 -0.7071
vn 0.7071 0.0000 0.7071
vn -0.7071 0.7071 0.0000
vn 0.0000 0.7071 -0.7071
vn 0.7071 0.7071 0.0000
vn 0.0000 0.7071 0.7071
usemtl Light
s off
f 18/1/1 19/2/1 12/3/1 9/4/1
f 22/5/2 23/6/2 20/7/2 17/8/2
f 23/9/3 24/10/3 15/11/3 16/12/3 11/13/3 12/14/3 19/15/3 20/16/3
f 10/17/4 11/18/4 16/19/4 13/20/4
f 14/21/5 15/22/5 24/23/5 21/24/5
f 1/25/4 2/26/4 4/27/4 3/28/4
f 7/29/2 8/30/2 6/31/2 5/32/2
f 5/33/1 6/34/1 2/35/1 1/36/1
f 3/37/6 7/38/6 5/33/6 1/36/6
f 8/39/3 4/40/3 2/41/3 6/42/3
f 9/43/7 12/44/7 11/18/7 10/17/7
f 15/45/8 14/46/8 13/20/8 16/19/8
f 23/6/9 22/5/9 21/47/9 24/48/9
f 19/49/10 18/50/10 17/8/10 20/7/10
f 13/51/6 14/52/6 21/53/6 22/54/6 17/55/6 18/56/6 9/57/6 10/58/6
f 25/59/11 26/60/11 28/61/11 27/62/11
f 27/62/12 28/61/12 32/63/12 31/64/12
f 31/64/13 32/63/13 30/65/13 29/66/13
f 29/66/14 30/65/14 26/67/14 25/68/14
f 32/63/3 28/69/3 26/70/3 30/65/3
o Emission_Cube.003
v 0.372151 0.186479 -0.372151
v 0.436075 0.250403 -0.436075
v 0.372151 0.186479 -0.627849
v 0.436075 0.250403 -0.563925
v 0.627849 0.186479 -0.372151
v 0.563925 0.250403 -0.436075
v 0.627849 0.186479 -0.627849
v 0.563925 0.250403 -0.563925
vt 0.687500 0.562500
vt 0.718750 0.562500
vt 0.718750 0.593750
vt 0.687500 0.593750
vt 0.718750 0.625000
vt 0.687500 0.625000
vt 0.718750 0.656250
vt 0.687500 0.656250
vt 0.718750 0.687500
vt 0.687500 0.687500
vt 0.750000 0.625000
vt 0.750000 0.656250
vn -0.7071 0.7071 0.0000
vn 0.0000 0.7071 -0.7071
vn 0.7071 0.7071 0.0000
vn 0.0000 0.7071 0.7071
vn 0.0000 1.0000 0.0000
usemtl Light
s off
f 33/71/15 34/72/15 36/73/15 35/74/15
f 35/74/16 36/73/16 40/75/16 39/76/16
f 39/76/17 40/75/17 38/77/17 37/78/17
f 37/78/18 38/77/18 34/79/18 33/80/18
f 40/75/19 36/81/19 34/82/19 38/77/19
