# Blender v3.1.2 OBJ File: 'cable.blend'
# www.blender.org
mtllib cable.mtl
o Cable_Cube.002
v 0.437500 0.000000 0.500562
v 0.437500 0.125000 0.500562
v 0.437500 0.000000 -0.000562
v 0.437500 0.125000 -0.000562
v 0.562500 0.000000 0.500562
v 0.562500 0.125000 0.500562
v 0.562500 0.000000 -0.000562
v 0.562500 0.125000 -0.000562
vt 1.000000 0.125000
vt 1.000000 0.250000
vt -0.000000 0.250000
vt -0.000000 0.125000
vt 0.125000 0.625000
vt 0.000000 0.625000
vt 0.000000 0.500000
vt 0.125000 0.500000
vt 0.000000 0.500000
vt 0.000000 0.375000
vt 1.000000 0.375000
vt 1.000000 0.500000
vt 0.000000 0.500000
vt 0.125000 0.500000
vt 0.125000 0.625000
vt 0.000000 0.625000
vt 0.000000 0.000000
vt 1.000000 0.000000
vn -1.0000 0.0000 0.0000
vn 0.0000 0.0000 -1.0000
vn 1.0000 0.0000 0.0000
vn 0.0000 0.0000 1.0000
vn 0.0000 -1.0000 0.0000
vn 0.0000 1.0000 0.0000
usemtl Cable
s off
f 1/1/1 2/2/1 4/3/1 3/4/1
f 3/5/2 4/6/2 8/7/2 7/8/2
f 7/9/3 8/10/3 6/11/3 5/12/3
f 5/13/4 6/14/4 2/15/4 1/16/4
f 3/4/5 7/17/5 5/18/5 1/1/5
f 8/10/6 4/3/6 2/2/6 6/11/6
