# Blender v3.0.1 OBJ File: 'solar_light_triangulated.blend'
# www.blender.org
mtllib solar_light.mtl
o Solarlight_Cylinder.001
v 0.440000 0.562500 0.396077
v 0.312800 0.500000 0.500000
v 0.560000 0.562500 0.396077
v 0.406400 0.500000 0.662120
v 0.620000 0.562500 0.500000
v 0.593600 0.500000 0.662120
v 0.560000 0.562500 0.603923
v 0.687200 0.500000 0.500000
v 0.440000 0.562500 0.603923
v 0.593600 0.500000 0.337880
v 0.380000 0.562500 0.500000
v 0.406400 0.500000 0.337880
v 0.440000 0.687500 0.396077
v 0.312800 0.625000 0.500000
v 0.560000 0.687500 0.396077
v 0.406400 0.625000 0.662120
v 0.620000 0.687500 0.500000
v 0.593600 0.625000 0.662120
v 0.560000 0.687500 0.603923
v 0.687200 0.625000 0.500000
v 0.440000 0.687500 0.603923
v 0.593600 0.625000 0.337880
v 0.380000 0.687500 0.500000
v 0.406400 0.625000 0.337880
v 0.456699 0.000000 0.475000
v 0.456699 0.562500 0.475000
v 0.500000 0.000000 0.450000
v 0.500000 0.562500 0.450000
v 0.543301 0.000000 0.475000
v 0.543301 0.562500 0.475000
v 0.543301 0.000000 0.525000
v 0.543301 0.562500 0.525000
v 0.500000 0.000000 0.550000
v 0.500000 0.562500 0.550000
v 0.456699 0.000000 0.525000
v 0.456699 0.562500 0.525000
vt 0.050000 0.125000
vt 0.150000 0.100000
vt 0.125000 0.125000
vt 0.125000 0.125000
vt 0.025000 0.100000
vt 0.150000 0.100000
vt 0.050000 0.125000
vt 0.150000 0.100000
vt 0.125000 0.125000
vt 0.125000 0.125000
vt 0.025000 0.100000
vt 0.150000 0.100000
vt 0.125000 0.125000
vt 0.025000 0.100000
vt 0.150000 0.100000
vt 0.125000 0.125000
vt 0.025000 0.100000
vt 0.150000 0.100000
vt 0.125000 0.250000
vt 0.125000 0.300000
vt 0.025000 0.300000
vt 0.050000 0.125000
vt 0.150000 0.100000
vt 0.125000 0.125000
vt 0.125000 0.125000
vt 0.025000 0.100000
vt 0.150000 0.100000
vt 0.050000 0.125000
vt 0.150000 0.100000
vt 0.125000 0.125000
vt 0.125000 0.125000
vt 0.025000 0.100000
vt 0.150000 0.100000
vt 0.125000 0.125000
vt 0.025000 0.100000
vt 0.150000 0.100000
vt 0.125000 0.125000
vt 0.025000 0.100000
vt 0.150000 0.100000
vt 0.425000 0.475000
vt 0.375000 0.550000
vt 0.225000 0.475000
vt 0.400000 0.125000
vt 0.450000 0.225000
vt 0.450000 0.125000
vt 0.450000 0.025000
vt 0.450000 0.025000
vt 0.400000 0.125000
vt 0.450000 0.125000
vt 0.400000 0.150000
vt 0.450000 0.025000
vt 0.400000 0.025000
vt 0.400000 0.325000
vt 0.450000 0.425000
vt 0.450000 0.325000
vt 0.400000 0.225000
vt 0.275000 0.050000
vt -0.000000 0.075000
vt -0.000000 0.050000
vt 0.275000 0.075000
vt -0.000000 0.100000
vt 0.275000 0.100000
vt -0.000000 0.125000
vt 0.275000 0.125000
vt -0.000000 0.175000
vt 0.275000 -0.000000
vt -0.000000 0.025000
vt -0.000000 -0.000000
vt 0.275000 0.025000
vt 0.400000 0.325000
vt 0.400000 0.325000
vt 0.325000 0.325000
vt 0.025000 0.100000
vt 0.050000 0.125000
vt 0.025000 0.100000
vt 0.050000 0.125000
vt 0.050000 0.125000
vt 0.050000 0.125000
vt 0.075000 0.325000
vt 0.025000 0.250000
vt 0.075000 0.225000
vt 0.025000 0.100000
vt 0.050000 0.125000
vt 0.025000 0.100000
vt 0.050000 0.125000
vt 0.050000 0.125000
vt 0.050000 0.125000
vt 0.275000 0.550000
vt 0.275000 0.400000
vt 0.375000 0.400000
vt 0.400000 0.025000
vt 0.400000 0.025000
vt 0.450000 0.150000
vt 0.400000 0.425000
vt 0.275000 0.175000
vt 0.350000 0.350000
vt 0.325000 0.325000
vt 0.350000 0.300000
vn -0.6338 0.6815 -0.3659
vn 0.6338 0.6815 0.3659
vn 0.0000 0.6815 -0.7319
vn -0.6338 0.6815 0.3659
vn 0.6338 0.6815 -0.3659
vn 0.0000 0.6815 0.7319
vn 0.0000 1.0000 -0.0000
vn -0.8660 0.0000 -0.5000
vn 0.0000 0.0000 -1.0000
vn 0.8660 0.0000 -0.5000
vn 0.8660 0.0000 0.5000
vn 0.0000 0.0000 1.0000
vn -0.8660 0.0000 0.5000
vn -0.5000 0.0000 -0.8660
vn 0.5000 0.0000 -0.8660
vn 1.0000 0.0000 0.0000
vn 0.5000 0.0000 0.8660
vn -0.5000 0.0000 0.8660
vn -1.0000 0.0000 0.0000
vn 0.0000 -1.0000 0.0000
usemtl Solarlight
s off
f 1/1/1 2/2/1 11/3/1
f 5/4/2 6/5/2 8/6/2
f 3/7/3 12/8/3 1/9/3
f 9/10/4 2/11/4 4/12/4
f 3/13/5 8/14/5 10/15/5
f 7/16/6 4/17/6 6/18/6
f 5/19/7 3/20/7 11/21/7
f 13/22/1 14/23/1 23/24/1
f 17/25/2 18/26/2 20/27/2
f 15/28/3 24/29/3 13/30/3
f 21/31/4 14/32/4 16/33/4
f 15/34/5 20/35/5 22/36/5
f 19/37/6 16/38/6 18/39/6
f 17/40/7 15/41/7 23/42/7
f 1/43/8 23/44/8 13/45/8
f 15/46/9 1/43/9 13/45/9
f 3/47/10 17/48/10 5/49/10
f 5/50/11 19/51/11 7/52/11
f 9/53/12 19/54/12 21/55/12
f 21/55/13 11/56/13 9/53/13
f 26/57/14 27/58/14 25/59/14
f 28/60/15 29/61/15 27/58/15
f 30/62/16 31/63/16 29/61/16
f 32/64/17 33/65/17 31/63/17
f 34/66/18 35/67/18 33/68/18
f 36/69/19 25/59/19 35/67/19
f 33/70/20 35/71/20 27/72/20
f 1/1/1 12/73/1 2/2/1
f 5/4/2 7/74/2 6/5/2
f 3/7/3 10/75/3 12/8/3
f 9/10/4 11/76/4 2/11/4
f 3/13/5 5/77/5 8/14/5
f 7/16/6 9/78/6 4/17/6
f 3/20/7 1/79/7 11/21/7
f 11/21/7 9/80/7 7/81/7
f 7/81/7 5/19/7 11/21/7
f 13/22/1 24/82/1 14/23/1
f 17/25/2 19/83/2 18/26/2
f 15/28/3 22/84/3 24/29/3
f 21/31/4 23/85/4 14/32/4
f 15/34/5 17/86/5 20/35/5
f 19/37/6 21/87/6 16/38/6
f 15/41/7 13/88/7 23/42/7
f 23/42/7 21/89/7 19/90/7
f 19/90/7 17/40/7 23/42/7
f 1/43/8 11/56/8 23/44/8
f 15/46/9 3/91/9 1/43/9
f 3/47/10 15/92/10 17/48/10
f 5/50/11 17/93/11 19/51/11
f 9/53/12 7/94/12 19/54/12
f 21/55/13 23/44/13 11/56/13
f 26/57/14 28/60/14 27/58/14
f 28/60/15 30/62/15 29/61/15
f 30/62/16 32/64/16 31/63/16
f 32/64/17 34/95/17 33/65/17
f 34/66/18 36/69/18 35/67/18
f 36/69/19 26/57/19 25/59/19
f 35/71/20 25/96/20 27/72/20
f 27/72/20 29/97/20 31/98/20
f 31/98/20 33/70/20 27/72/20
o Emission_Cylinder.002
v 0.439306 0.556299 0.394875
v 0.560694 0.556299 0.394875
v 0.621388 0.556299 0.500000
v 0.560694 0.556299 0.605125
v 0.439306 0.556299 0.605125
v 0.378612 0.556299 0.500000
v 0.439306 0.682745 0.394875
v 0.560694 0.682745 0.394875
v 0.621388 0.682745 0.500000
v 0.560694 0.682745 0.605125
v 0.439306 0.682745 0.605125
v 0.378612 0.682745 0.500000
vt 0.450000 0.125000
vt 0.500000 0.225000
vt 0.500000 0.125000
vt 0.500000 0.025000
vt 0.500000 0.025000
vt 0.450000 0.125000
vt 0.500000 0.125000
vt 0.450000 0.150000
vt 0.500000 0.025000
vt 0.450000 0.025000
vt 0.450000 0.325000
vt 0.500000 0.425000
vt 0.500000 0.325000
vt 0.450000 0.225000
vt 0.075000 0.275000
vt 0.075000 0.175000
vt 0.175000 0.100000
vt 0.450000 0.025000
vt 0.450000 0.025000
vt 0.500000 0.150000
vt 0.450000 0.425000
vt 0.275000 0.175000
vt 0.275000 0.275000
vt 0.175000 0.350000
vn -0.8660 0.0000 -0.5000
vn 0.0000 0.0000 -1.0000
vn 0.8660 0.0000 -0.5000
vn 0.8660 0.0000 0.5000
vn -0.0000 0.0000 1.0000
vn -0.8660 0.0000 0.5000
vn 0.0000 -1.0000 0.0000
usemtl Solarlight
s off
f 37/99/21 48/100/21 43/101/21
f 44/102/22 37/99/22 43/101/22
f 38/103/23 45/104/23 39/105/23
f 39/106/24 46/107/24 40/108/24
f 41/109/25 46/110/25 47/111/25
f 47/111/26 42/112/26 41/109/26
f 40/113/27 41/114/27 42/115/27
f 37/99/21 42/112/21 48/100/21
f 44/102/22 38/116/22 37/99/22
f 38/103/23 44/117/23 45/104/23
f 39/106/24 45/118/24 46/107/24
f 41/109/25 40/119/25 46/110/25
f 47/111/26 48/100/26 42/112/26
f 42/115/27 37/120/27 38/121/27
f 38/121/27 39/122/27 42/115/27
f 39/122/27 40/113/27 42/115/27
