# Blender v3.0.1 OBJ File: '12vBattery.blend'
# www.blender.org
mtllib 12v_battery.mtl
o Battery_Cube
v 0.187500 0.000000 0.875000
v 0.375000 0.500000 0.375000
v 0.187500 0.562500 0.875000
v 0.187500 0.000000 0.125000
v 0.187500 0.562500 0.125000
v 0.812500 0.000000 0.875000
v 0.625000 0.500000 0.375000
v 0.812500 0.562500 0.875000
v 0.812500 0.000000 0.125000
v 0.812500 0.562500 0.125000
v 0.375000 0.500000 0.625000
v 0.625000 0.500000 0.625000
v 0.375000 0.500000 0.125000
v 0.375000 0.562500 0.125000
v 0.625000 0.562500 0.125000
v 0.625000 0.500000 0.125000
v 0.375000 0.500000 0.875000
v 0.375000 0.562500 0.875000
v 0.625000 0.500000 0.875000
v 0.625000 0.562500 0.875000
v 0.375000 0.562500 0.625000
v 0.375000 0.562500 0.375000
v 0.625000 0.562500 0.375000
v 0.625000 0.562500 0.625000
v 0.437500 0.500000 0.312500
v 0.437500 0.562500 0.312500
v 0.437500 0.500000 0.187500
v 0.437500 0.562500 0.187500
v 0.562500 0.500000 0.312500
v 0.562500 0.562500 0.312500
v 0.562500 0.500000 0.187500
v 0.562500 0.562500 0.187500
v 0.437500 0.500000 0.812500
v 0.437500 0.562500 0.812500
v 0.437500 0.500000 0.687500
v 0.437500 0.562500 0.687500
v 0.562500 0.500000 0.812500
v 0.562500 0.562500 0.812500
v 0.562500 0.500000 0.687500
v 0.562500 0.562500 0.687500
v 0.437500 0.488281 0.156250
v 0.437500 0.550781 0.156250
v 0.562500 0.488281 0.156250
v 0.562500 0.550781 0.156250
v 0.406250 0.488281 0.187500
v 0.406250 0.550781 0.187500
v 0.406250 0.488281 0.312500
v 0.406250 0.550781 0.312500
v 0.437500 0.488281 0.343750
v 0.437500 0.550781 0.343750
v 0.562500 0.488281 0.343750
v 0.562500 0.550781 0.343750
v 0.593750 0.488281 0.312500
v 0.593750 0.550781 0.312500
v 0.593750 0.488281 0.187500
v 0.593750 0.550781 0.187500
v 0.437500 0.488281 0.125000
v 0.437500 0.550781 0.125000
v 0.562500 0.550781 0.125000
v 0.562500 0.488281 0.125000
v 0.437500 0.437500 0.125000
v 0.562500 0.437500 0.125000
v 0.437500 0.437500 0.000000
v 0.562500 0.437500 0.000000
v 0.437500 0.000000 0.125000
v 0.562500 0.000000 0.125000
v 0.437500 0.000000 0.000000
v 0.562500 0.000000 0.000000
v 0.562500 0.488281 0.843750
v 0.562500 0.550781 0.843750
v 0.437500 0.488281 0.843750
v 0.437500 0.550781 0.843750
v 0.593750 0.488281 0.812500
v 0.593750 0.550781 0.812500
v 0.593750 0.488281 0.687500
v 0.593750 0.550781 0.687500
v 0.562500 0.488281 0.656250
v 0.562500 0.550781 0.656250
v 0.437500 0.488281 0.656250
v 0.437500 0.550781 0.656250
v 0.406250 0.488281 0.687500
v 0.406250 0.550781 0.687500
v 0.406250 0.488281 0.812500
v 0.406250 0.550781 0.812500
v 0.562500 0.488281 0.875000
v 0.562500 0.550781 0.875000
v 0.437500 0.550781 0.875000
v 0.437500 0.488281 0.875000
v 0.562500 0.437500 0.875000
v 0.437500 0.437500 0.875000
v 0.562500 0.437500 1.000000
v 0.437500 0.437500 1.000000
v 0.562500 0.000000 0.875000
v 0.437500 0.000000 0.875000
v 0.562500 0.000000 1.000000
v 0.437500 0.000000 1.000000
vt 0.400000 -0.000000
vt 0.700000 0.225000
vt 0.400000 0.225000
vt 0.950000 -0.000000
vt 0.875000 0.200000
vt 0.775000 0.200000
vt 0.400000 -0.000000
vt 0.700000 0.225000
vt 0.400000 0.225000
vt 0.950000 -0.000000
vt 0.875000 0.200000
vt 0.775000 0.200000
vt 0.400000 -0.000000
vt 0.700000 0.225000
vt 0.400000 0.225000
vt 0.600000 0.400000
vt 0.400000 0.475000
vt 0.500000 0.400000
vt 0.700000 0.500000
vt 0.600000 0.475000
vt 0.700000 0.475000
vt 0.600000 0.475000
vt 0.700000 0.500000
vt 0.600000 0.500000
vt 0.600000 0.500000
vt 0.700000 0.475000
vt 0.700000 0.500000
vt 0.700000 0.400000
vt 0.600000 0.300000
vt 0.700000 0.300000
vt 0.500000 0.475000
vt 0.400000 0.500000
vt 0.500000 0.500000
vt 0.400000 0.475000
vt 0.500000 0.500000
vt 0.500000 0.475000
vt 0.400000 0.500000
vt 0.400000 0.475000
vt 0.400000 0.300000
vt 0.500000 0.400000
vt 0.400000 0.400000
vt 0.100000 0.250000
vt 0.050000 0.225000
vt 0.100000 0.225000
vt 0.050000 0.250000
vt 0.025000 0.300000
vt 0.025000 0.250000
vt 0.050000 0.300000
vt 0.100000 0.300000
vt 0.050000 0.300000
vt 0.100000 0.300000
vt 0.125000 0.250000
vt 0.125000 0.300000
vt 0.100000 0.250000
vt 0.050000 0.225000
vt 0.100000 0.225000
vt 0.050000 0.250000
vt 0.025000 0.300000
vt 0.025000 0.250000
vt 0.050000 0.300000
vt 0.100000 0.300000
vt 0.050000 0.300000
vt 0.100000 0.300000
vt 0.125000 0.250000
vt 0.125000 0.300000
vt 0.100000 0.025000
vt 0.075000 0.000000
vt 0.075000 0.025000
vt 0.050000 0.150000
vt 0.025000 0.200000
vt 0.050000 0.200000
vt 0.050000 0.000000
vt 0.075000 0.025000
vt 0.075000 0.000000
vt 0.100000 0.175000
vt 0.150000 0.200000
vt 0.150000 0.175000
vt 0.025000 0.025000
vt 0.000000 0.000000
vt 0.000000 0.025000
vt 0.075000 0.150000
vt 0.050000 0.200000
vt 0.075000 0.200000
vt 0.025000 0.000000
vt 0.050000 0.050000
vt 0.050000 0.000000
vt 0.025000 0.100000
vt 0.025000 0.175000
vt 0.075000 0.175000
vt 0.050000 0.025000
vt 0.075000 0.000000
vt 0.075000 0.025000
vt 0.025000 0.150000
vt 0.075000 0.125000
vt 0.075000 0.150000
vt 0.075000 0.175000
vt 0.025000 0.175000
vt 0.025000 0.175000
vt 0.075000 0.000000
vt 0.100000 0.025000
vt 0.100000 0.000000
vt 0.100000 0.175000
vt 0.100000 0.125000
vt 0.100000 0.175000
vt 0.750000 0.400000
vt 0.800000 0.225000
vt 0.750000 0.225000
vt 0.325000 0.050000
vt 0.325000 0.000000
vt 0.325000 0.025000
vt 0.000000 0.050000
vt 0.050000 0.000000
vt 0.000000 0.000000
vt 0.325000 0.050000
vt 0.325000 0.000000
vt 0.375000 0.000000
vt 0.350000 0.150000
vt 0.225000 0.050000
vt 0.225000 0.150000
vt 0.750000 0.400000
vt 0.800000 0.225000
vt 0.750000 0.225000
vt 0.700000 0.475000
vt 0.750000 0.300000
vt 0.700000 0.300000
vt 0.100000 0.025000
vt 0.075000 0.000000
vt 0.075000 0.025000
vt 0.050000 0.150000
vt 0.025000 0.200000
vt 0.050000 0.200000
vt 0.050000 0.000000
vt 0.075000 0.025000
vt 0.075000 0.000000
vt 0.100000 0.175000
vt 0.150000 0.200000
vt 0.150000 0.175000
vt 0.025000 0.025000
vt 0.000000 0.000000
vt 0.000000 0.025000
vt 0.075000 0.150000
vt 0.050000 0.200000
vt 0.075000 0.200000
vt 0.025000 0.000000
vt 0.050000 0.050000
vt 0.050000 0.000000
vt 0.100000 0.125000
vt 0.025000 0.100000
vt 0.025000 0.175000
vt 0.050000 0.025000
vt 0.075000 0.000000
vt 0.075000 0.025000
vt 0.025000 0.150000
vt 0.075000 0.125000
vt 0.075000 0.150000
vt 0.075000 0.175000
vt 0.025000 0.175000
vt 0.025000 0.175000
vt 0.075000 0.000000
vt 0.100000 0.025000
vt 0.100000 0.000000
vt 0.100000 0.175000
vt 0.100000 0.125000
vt 0.750000 0.400000
vt 0.800000 0.225000
vt 0.750000 0.225000
vt 0.325000 0.050000
vt 0.325000 0.000000
vt 0.325000 0.025000
vt 0.000000 0.050000
vt 0.050000 0.000000
vt 0.000000 0.000000
vt 0.325000 0.050000
vt 0.325000 0.000000
vt 0.375000 0.000000
vt 0.350000 0.150000
vt 0.225000 0.050000
vt 0.225000 0.150000
vt 0.750000 0.400000
vt 0.800000 0.225000
vt 0.750000 0.225000
vt 0.700000 0.475000
vt 0.750000 0.300000
vt 0.700000 0.300000
vt 0.700000 -0.000000
vt 0.775000 0.225000
vt 0.700000 0.225000
vt 0.700000 -0.000000
vt 0.950000 0.225000
vt 0.875000 0.225000
vt 0.700000 -0.000000
vt 0.775000 0.225000
vt 0.700000 0.225000
vt 0.700000 -0.000000
vt 0.950000 0.225000
vt 0.875000 0.225000
vt 0.700000 -0.000000
vt 0.500000 0.300000
vt 0.400000 0.300000
vt 0.400000 0.225000
vt 0.600000 0.300000
vt 0.700000 0.300000
vt 0.700000 0.400000
vt 0.700000 0.475000
vt 0.400000 0.400000
vt 0.600000 0.500000
vt 0.700000 0.475000
vt 0.600000 0.475000
vt 0.600000 0.400000
vt 0.500000 0.475000
vt 0.500000 0.500000
vt 0.500000 0.300000
vt 0.100000 0.000000
vt 0.025000 0.150000
vt 0.050000 0.025000
vt 0.100000 0.200000
vt 0.025000 0.000000
vt 0.050000 0.150000
vt 0.025000 0.050000
vt 0.075000 0.100000
vt 0.025000 0.125000
vt 0.025000 0.175000
vt 0.025000 0.125000
vt 0.075000 0.175000
vt 0.075000 0.025000
vt 0.100000 0.125000
vt 0.800000 0.400000
vt 0.375000 0.000000
vt 0.050000 0.050000
vt 0.325000 0.025000
vt 0.350000 0.050000
vt 0.800000 0.400000
vt 0.750000 0.475000
vt 0.100000 0.000000
vt 0.025000 0.150000
vt 0.050000 0.025000
vt 0.100000 0.200000
vt 0.025000 0.000000
vt 0.050000 0.150000
vt 0.025000 0.050000
vt 0.075000 0.175000
vt 0.075000 0.100000
vt 0.025000 0.125000
vt 0.025000 0.175000
vt 0.025000 0.125000
vt 0.075000 0.175000
vt 0.075000 0.025000
vt 0.100000 0.175000
vt 0.800000 0.400000
vt 0.375000 0.000000
vt 0.050000 0.050000
vt 0.325000 0.025000
vt 0.350000 0.050000
vt 0.800000 0.400000
vt 0.750000 0.475000
vn -1.0000 0.0000 0.0000
vn 0.0000 0.0000 -1.0000
vn 1.0000 0.0000 0.0000
vn 0.0000 0.0000 1.0000
vn 0.0000 -1.0000 0.0000
vn 0.0000 1.0000 0.0000
vn -0.7071 0.0000 -0.7071
vn -0.7071 0.0000 0.7071
vn 0.7071 0.0000 0.7071
vn 0.7071 0.0000 -0.7071
vn 0.0000 0.7410 -0.6715
vn 0.0000 0.7410 0.6715
usemtl Battery
s off
f 3/1/1 4/2/1 1/3/1
f 4/4/2 13/5/2 16/6/2
f 10/7/3 6/8/3 9/9/3
f 6/10/4 19/11/4 17/12/4
f 9/13/5 1/14/5 4/15/5
f 22/16/6 3/17/6 21/18/6
f 2/19/3 14/20/3 22/21/3
f 16/22/1 23/23/1 15/24/1
f 2/25/2 23/26/2 7/27/2
f 2/28/6 16/29/6 13/30/6
f 17/31/3 21/32/3 18/33/3
f 11/34/4 24/35/4 21/32/4
f 19/36/1 24/37/1 12/38/1
f 12/39/6 17/40/6 19/41/6
f 26/42/1 27/43/1 25/44/1
f 28/45/2 31/46/2 27/47/2
f 32/48/3 29/49/3 31/50/3
f 30/51/4 25/52/4 29/53/4
f 28/45/6 30/51/6 32/48/6
f 34/54/1 35/55/1 33/56/1
f 36/57/2 39/58/2 35/59/2
f 40/60/3 37/61/3 39/62/3
f 38/63/4 33/64/4 37/65/4
f 36/57/6 38/63/6 40/60/6
f 45/66/7 42/67/7 41/68/7
f 47/69/1 46/70/1 45/71/1
f 49/72/8 48/73/8 47/74/8
f 51/75/4 50/76/4 49/77/4
f 53/78/9 52/79/9 51/80/9
f 55/81/3 54/82/3 53/83/3
f 56/84/10 43/85/10 44/86/10
f 48/87/6 52/88/6 56/89/6
f 60/90/3 44/91/3 43/92/3
f 60/93/4 58/94/4 57/95/4
f 43/96/6 57/97/6 41/98/6
f 58/99/1 41/100/1 42/101/1
f 59/102/6 42/103/6 44/104/6
f 67/105/1 61/106/1 63/107/1
f 58/108/4 61/109/4 57/110/4
f 63/111/11 59/112/11 64/113/11
f 59/114/3 62/115/3 64/116/3
f 67/117/5 66/118/5 65/119/5
f 66/120/3 64/121/3 62/122/3
f 68/123/2 63/124/2 64/125/2
f 73/126/9 70/127/9 69/128/9
f 75/129/3 74/130/3 73/131/3
f 77/132/10 76/133/10 75/134/10
f 79/135/2 78/136/2 77/137/2
f 81/138/7 80/139/7 79/140/7
f 83/141/1 82/142/1 81/143/1
f 84/144/8 71/145/8 72/146/8
f 70/147/6 76/148/6 80/149/6
f 88/150/1 72/151/1 71/152/1
f 88/153/2 86/154/2 85/155/2
f 71/156/6 85/157/6 69/158/6
f 86/159/3 69/160/3 70/161/3
f 72/162/6 86/163/6 70/147/6
f 95/164/3 89/165/3 91/166/3
f 86/167/4 89/168/4 85/169/4
f 91/170/12 87/171/12 92/172/12
f 87/173/1 90/174/1 92/175/1
f 95/176/5 94/177/5 93/178/5
f 94/179/1 92/180/1 90/181/1
f 96/182/4 91/183/4 92/184/4
f 3/1/1 5/185/1 4/2/1
f 16/6/2 15/186/2 10/187/2
f 10/187/2 9/188/2 16/6/2
f 9/188/2 4/4/2 16/6/2
f 4/4/2 5/189/2 13/5/2
f 5/189/2 14/190/2 13/5/2
f 10/7/3 8/191/3 6/8/3
f 17/12/4 18/192/4 3/193/4
f 3/193/4 1/194/4 17/12/4
f 1/194/4 6/10/4 17/12/4
f 6/10/4 8/195/4 19/11/4
f 8/195/4 20/196/4 19/11/4
f 9/13/5 6/197/5 1/14/5
f 24/198/6 20/199/6 8/200/6
f 8/200/6 10/187/6 23/201/6
f 10/187/6 15/202/6 23/201/6
f 24/198/6 8/200/6 23/201/6
f 22/16/6 14/203/6 5/204/6
f 24/198/6 23/201/6 22/16/6
f 3/17/6 18/205/6 21/18/6
f 21/18/6 24/198/6 22/16/6
f 22/16/6 5/204/6 3/17/6
f 2/19/3 13/206/3 14/20/3
f 16/22/1 7/207/1 23/23/1
f 2/25/2 22/208/2 23/26/2
f 2/28/6 7/209/6 16/29/6
f 17/31/3 11/34/3 21/32/3
f 11/34/4 12/210/4 24/35/4
f 19/36/1 20/211/1 24/37/1
f 12/39/6 11/212/6 17/40/6
f 26/42/1 28/45/1 27/43/1
f 28/45/2 32/48/2 31/46/2
f 32/48/3 30/51/3 29/49/3
f 30/51/4 26/42/4 25/52/4
f 28/45/6 26/42/6 30/51/6
f 34/54/1 36/57/1 35/55/1
f 36/57/2 40/60/2 39/58/2
f 40/60/3 38/63/3 37/61/3
f 38/63/4 34/54/4 33/64/4
f 36/57/6 34/54/6 38/63/6
f 45/66/7 46/213/7 42/67/7
f 47/69/1 48/214/1 46/70/1
f 49/72/8 50/215/8 48/73/8
f 51/75/4 52/216/4 50/76/4
f 53/78/9 54/217/9 52/79/9
f 55/81/3 56/218/3 54/82/3
f 56/84/10 55/219/10 43/85/10
f 56/89/6 44/104/6 42/103/6
f 42/103/6 46/220/6 48/87/6
f 48/87/6 50/221/6 52/88/6
f 52/88/6 54/222/6 56/89/6
f 56/89/6 42/103/6 48/87/6
f 60/90/3 59/112/3 44/91/3
f 60/93/4 59/223/4 58/94/4
f 43/96/6 60/224/6 57/97/6
f 58/99/1 57/225/1 41/100/1
f 59/102/6 58/226/6 42/103/6
f 67/105/1 65/227/1 61/106/1
f 58/108/1 63/228/1 61/109/1
f 63/111/11 58/229/11 59/112/11
f 59/114/4 60/230/4 62/115/4
f 67/117/5 68/231/5 66/118/5
f 66/120/3 68/232/3 64/121/3
f 68/123/2 67/233/2 63/124/2
f 73/126/9 74/234/9 70/127/9
f 75/129/3 76/235/3 74/130/3
f 77/132/10 78/236/10 76/133/10
f 79/135/2 80/237/2 78/136/2
f 81/138/7 82/238/7 80/139/7
f 83/141/1 84/239/1 82/142/1
f 84/144/8 83/240/8 71/145/8
f 84/241/6 72/162/6 70/147/6
f 70/147/6 74/242/6 76/148/6
f 76/148/6 78/243/6 80/149/6
f 80/149/6 82/244/6 84/241/6
f 84/241/6 70/147/6 80/149/6
f 88/150/1 87/171/1 72/151/1
f 88/153/2 87/245/2 86/154/2
f 71/156/6 88/246/6 85/157/6
f 86/159/3 85/247/3 69/160/3
f 72/162/6 87/248/6 86/163/6
f 95/164/3 93/249/3 89/165/3
f 86/167/3 91/250/3 89/168/3
f 91/170/12 86/251/12 87/171/12
f 87/173/4 88/252/4 90/174/4
f 95/176/5 96/253/5 94/177/5
f 94/179/1 96/254/1 92/180/1
f 96/182/4 95/255/4 91/183/4
