# Blender v3.0.1 OBJ File: ''
# www.blender.org
mtllib solar_panel.mtl
o cube.002
v 1.000000 0.125000 0.875000
v 1.000000 -0.000000 0.875000
v 1.000000 0.125000 0.125000
v 1.000000 0.000000 0.125000
v 0.875000 0.125000 0.125000
v 0.875000 0.000000 0.125000
v 0.875000 0.125000 0.875000
v 0.875000 -0.000000 0.875000
v 1.000000 0.125000 0.125000
v 1.000000 0.000000 0.125000
v 1.000000 0.125000 -0.000000
v 1.000000 0.000000 -0.000000
v 0.000000 0.125000 -0.000000
v 0.000000 0.000000 -0.000000
v 0.000000 0.125000 0.125000
v 0.000000 0.000000 0.125000
v 1.000000 0.125000 1.000000
v 1.000000 -0.000000 1.000000
v 1.000000 0.125000 0.875000
v 1.000000 -0.000000 0.875000
v 0.000000 0.125000 0.875000
v 0.000000 -0.000000 0.875000
v 0.000000 0.125000 1.000000
v 0.000000 -0.000000 1.000000
v 0.125000 0.125000 0.875000
v 0.125000 -0.000000 0.875000
v 0.125000 0.125000 0.125000
v 0.125000 0.000000 0.125000
v 0.000000 0.125000 0.125000
v 0.000000 0.000000 0.125000
v 0.000000 0.125000 0.875000
v 0.000000 -0.000000 0.875000
v 0.875000 0.093750 0.875000
v 0.875000 -0.000000 0.875000
v 0.875000 0.093750 0.125000
v 0.875000 0.000000 0.125000
v 0.125000 0.093750 0.125000
v 0.125000 0.000000 0.125000
v 0.125000 0.093750 0.875000
v 0.125000 -0.000000 0.875000
vt 0.468750 0.500000
vt 0.468750 0.437500
vt 0.875000 0.500000
vt 0.875000 0.437500
vt 0.000000 0.437500
vt 0.000000 0.375000
vt 0.406250 0.437500
vt 0.406250 0.375000
vt 0.625000 0.531250
vt 0.625000 0.937500
vt 0.562500 0.531250
vt 0.562500 0.937500
vt 0.531250 0.437500
vt 0.531250 0.031250
vt 0.468750 0.031250
vt 0.187500 0.375000
vt 0.187500 0.312500
vt 0.250000 0.375000
vt 0.250000 0.312500
vt 0.625000 0.875000
vt 0.625000 0.812500
vt 0.687500 0.875000
vt 0.687500 0.812500
vt 0.531250 0.437500
vt 0.531250 0.375000
vt 0.593750 0.437500
vt 0.593750 0.375000
vt 0.593750 0.437500
vt 0.593750 0.375000
vt 0.656250 0.437500
vt 0.656250 0.375000
vt 0.500000 0.812500
vt 0.500000 0.875000
vt 0.000000 0.812500
vt 0.000000 0.875000
vt 0.500000 0.812500
vt 0.500000 0.750000
vt 0.000000 0.812500
vt 0.000000 0.750000
vt 0.000000 0.937500
vt 0.000000 0.875000
vt 0.500000 0.937500
vt 0.500000 0.875000
vt 0.000000 1.000000
vt 0.000000 0.937500
vt 0.500000 1.000000
vt 0.500000 0.937500
vt 0.000000 0.375000
vt 0.000000 0.312500
vt 0.062500 0.375000
vt 0.062500 0.312500
vt 0.062500 0.375000
vt 0.062500 0.312500
vt 0.125000 0.375000
vt 0.125000 0.312500
vt 0.500000 0.562500
vt 0.500000 0.625000
vt 0.000000 0.562500
vt 0.000000 0.625000
vt 0.500000 0.562500
vt 0.500000 0.500000
vt 0.000000 0.562500
vt 0.000000 0.500000
vt 0.000000 0.687500
vt 0.000000 0.625000
vt 0.500000 0.687500
vt 0.500000 0.625000
vt 0.000000 0.750000
vt 0.000000 0.687500
vt 0.500000 0.750000
vt 0.500000 0.687500
vt 0.000000 0.500000
vt 0.000000 0.437500
vt 0.406250 0.500000
vt 0.406250 0.437500
vt 0.500000 1.000000
vt 0.500000 0.937500
vt 0.906250 1.000000
vt 0.906250 0.937500
vt 0.562500 0.531250
vt 0.562500 0.937500
vt 0.500000 0.531250
vt 0.500000 0.937500
vt 0.468750 0.500000
vt 0.468750 0.093750
vt 0.406250 0.500000
vt 0.406250 0.093750
vt 0.125000 0.375000
vt 0.125000 0.312500
vt 0.187500 0.375000
vt 0.187500 0.312500
vt 0.625000 0.937500
vt 0.625000 0.875000
vt 0.687500 0.937500
vt 0.687500 0.875000
vt 0.406250 0.937500
vt 0.406250 0.890625
vt 0.812500 0.937500
vt 0.812500 0.890625
vt 0.406250 0.812500
vt 0.406250 0.765625
vt 0.812500 0.812500
vt 0.812500 0.765625
vt 0.406250 0.593750
vt 0.406250 1.000000
vt 0.000000 0.593750
vt 0.000000 1.000000
vt 0.406250 0.593750
vt 0.406250 0.187500
vt 0.000000 0.593750
vt 0.000000 0.187500
vt 0.406250 0.875000
vt 0.406250 0.828125
vt 0.812500 0.875000
vt 0.812500 0.828125
vt 0.406250 1.000000
vt 0.406250 0.953125
vt 0.812500 1.000000
vt 0.812500 0.953125
vn 1.0000 0.0000 0.0000
vn -1.0000 0.0000 0.0000
vn 0.0000 1.0000 0.0000
vn 0.0000 -1.0000 -0.0000
vn 0.0000 -0.0000 1.0000
vn 0.0000 0.0000 -1.0000
usemtl m_2
s 1
f 1/1/1 2/2/1 3/3/1
f 2/2/1 4/4/1 3/3/1
f 5/5/2 6/6/2 7/7/2
f 6/6/2 8/8/2 7/7/2
f 5/9/3 7/10/3 3/11/3
f 7/10/3 1/12/3 3/11/3
f 8/13/4 6/14/4 2/2/4
f 6/14/4 4/15/4 2/2/4
f 7/16/5 8/17/5 1/18/5
f 8/17/5 2/19/5 1/18/5
f 3/20/6 4/21/6 5/22/6
f 4/21/6 6/23/6 5/22/6
f 9/24/1 10/25/1 11/26/1
f 10/25/1 12/27/1 11/26/1
f 13/28/2 14/29/2 15/30/2
f 14/29/2 16/31/2 15/30/2
f 13/32/3 15/33/3 11/34/3
f 15/33/3 9/35/3 11/34/3
f 16/36/4 14/37/4 10/38/4
f 14/37/4 12/39/4 10/38/4
f 15/40/5 16/41/5 9/42/5
f 16/41/5 10/43/5 9/42/5
f 11/44/6 12/45/6 13/46/6
f 12/45/6 14/47/6 13/46/6
f 17/48/1 18/49/1 19/50/1
f 18/49/1 20/51/1 19/50/1
f 21/52/2 22/53/2 23/54/2
f 22/53/2 24/55/2 23/54/2
f 21/56/3 23/57/3 19/58/3
f 23/57/3 17/59/3 19/58/3
f 24/60/4 22/61/4 18/62/4
f 22/61/4 20/63/4 18/62/4
f 23/64/5 24/65/5 17/66/5
f 24/65/5 18/67/5 17/66/5
f 19/68/6 20/69/6 21/70/6
f 20/69/6 22/71/6 21/70/6
f 25/72/1 26/73/1 27/74/1
f 26/73/1 28/75/1 27/74/1
f 29/76/2 30/77/2 31/78/2
f 30/77/2 32/79/2 31/78/2
f 29/80/3 31/81/3 27/82/3
f 31/81/3 25/83/3 27/82/3
f 32/84/4 30/85/4 26/86/4
f 30/85/4 28/87/4 26/86/4
f 31/88/5 32/89/5 25/90/5
f 32/89/5 26/91/5 25/90/5
f 27/92/6 28/93/6 29/94/6
f 28/93/6 30/95/6 29/94/6
usemtl m_1
f 33/96/1 34/97/1 35/98/1
f 34/97/1 36/99/1 35/98/1
f 37/100/2 38/101/2 39/102/2
f 38/101/2 40/103/2 39/102/2
f 37/104/3 39/105/3 35/106/3
f 39/105/3 33/107/3 35/106/3
f 40/108/4 38/109/4 34/110/4
f 38/109/4 36/111/4 34/110/4
f 39/112/5 40/113/5 33/114/5
f 40/113/5 34/115/5 33/114/5
f 35/116/6 36/117/6 37/118/6
f 36/117/6 38/119/6 37/118/6
